<?xml version="1.0" encoding="utf-8"?>
<!-- Generator: Adobe Illustrator 21.1.0, SVG Export Plug-In . SVG Version: 6.00 Build 0)  -->
<svg version="1.1" id="Layer_1" xmlns="http://www.w3.org/2000/svg" xmlns:xlink="http://www.w3.org/1999/xlink" x="0px" y="0px"
	 viewBox="0 0 697.2 51" style="enable-background:new 0 0 697.2 51;" xml:space="preserve">
<style type="text/css">
	.st0{fill:#FFFFFF;}
</style>
<g id="Backgound__x2013__don_x27_t_use">
</g>
<g id="Oliva_logo_with_free_space">
</g>
<g id="Power_of_nature">
	<g>
		<path class="st0" d="M11.9,27.5v16.2H6.7V7.2h13.8c3.5,0,5.8,0.9,7.6,2.4c2.2,1.9,3.6,4.6,3.6,7.8s-1.4,5.9-3.6,7.8
			c-1.8,1.5-4.1,2.4-7.6,2.4L11.9,27.5L11.9,27.5z M20.3,22.5c2.5,0,3.9-0.6,4.8-1.6c0.9-0.9,1.5-2.2,1.5-3.6s-0.6-2.7-1.5-3.6
			c-0.9-1-2.3-1.6-4.8-1.6H12v10.4C12,22.5,20.3,22.5,20.3,22.5z"/>
		<path class="st0" d="M69.3,6.6c10.3,0,18.3,8.1,18.3,18.8c0,10.6-7.9,18.8-18.3,18.8C59,44.2,51,36.1,51,25.4
			C51,14.8,59,6.6,69.3,6.6z M69.3,39.2c7.5,0,13-5.9,13-13.8s-5.6-13.8-13-13.8c-7.5,0-13,5.9-13,13.8
			C56.2,33.3,61.8,39.2,69.3,39.2z"/>
		<path class="st0" d="M120.4,43.7h-3.7L105.2,7.2h5.3l8.2,26.4l8.9-26.4h3.6l8.9,26.4l8.2-26.4h5.3l-11.5,36.5h-3.7l-9.1-27
			L120.4,43.7z"/>
		<path class="st0" d="M191.8,21.5v5h-12v12.3H196v5h-21.4V7.2h20.9v5h-15.6v9.4L191.8,21.5L191.8,21.5z"/>
		<path class="st0" d="M223.6,26.5v17.2h-5.2V7.2h12.8c3.3,0,5.4,0.8,7.1,2.1c2.2,1.8,3.6,4.5,3.6,7.5s-1.4,5.7-3.6,7.5
			c-1.1,0.9-2.5,1.6-4.3,1.9l13.1,17.4h-6.3l-13-17.2h-4.2V26.5z M230.9,21.5c2.3,0,3.5-0.5,4.4-1.3c0.8-0.8,1.4-2,1.4-3.3
			s-0.5-2.5-1.4-3.3c-0.8-0.8-2-1.4-4.4-1.4h-7.3v9.4L230.9,21.5L230.9,21.5z"/>
		<path class="st0" d="M309,6.6c10.3,0,18.3,8.1,18.3,18.8c0,10.6-7.9,18.8-18.3,18.8c-10.3,0-18.3-8.1-18.3-18.8
			C290.7,14.8,298.7,6.6,309,6.6z M309,39.2c7.5,0,13-5.9,13-13.8s-5.6-13.8-13-13.8c-7.5,0-13,5.9-13,13.8
			C295.9,33.3,301.5,39.2,309,39.2z"/>
		<path class="st0" d="M366.6,21.5v5h-12v17.2h-5.2V7.2h20.9v5h-15.6v9.4L366.6,21.5L366.6,21.5z"/>
		<path class="st0" d="M423,16.9v26.8h-5.2V7.2h3.6L443.3,34V7.2h5.2v36.5h-3.7L423,16.9z"/>
		<path class="st0" d="M493.8,34.3h-15.4l-3.8,9.4h-5.4l15.1-36.5h3.7l15,36.5h-5.4L493.8,34.3z M480.5,29.3h11.3l-5.6-13.6
			L480.5,29.3z"/>
		<path class="st0" d="M516.6,7.2h25v5h-9.9v31.6h-5.2V12.1h-9.9L516.6,7.2L516.6,7.2z"/>
		<path class="st0" d="M566,39.4c-2.3-2.6-3.8-5.9-3.8-10.8V7.2h5.2v21.6c0,3.4,0.8,5.6,2.3,7.2c1.8,2,4.5,3.2,7.6,3.2
			s5.8-1.2,7.6-3.2c1.5-1.6,2.3-3.8,2.3-7.2V7.2h5.2v21.4c0,4.9-1.5,8.3-3.8,10.8c-2.8,3-6.8,4.8-11.3,4.8
			C572.9,44.2,568.8,42.4,566,39.4z"/>
		<path class="st0" d="M622.2,26.5v17.2H617V7.2h12.8c3.3,0,5.4,0.8,7.1,2.1c2.2,1.8,3.6,4.5,3.6,7.5s-1.4,5.7-3.6,7.5
			c-1.1,0.9-2.5,1.6-4.3,1.9l13.1,17.4h-6.3l-13-17.2h-4.2V26.5z M629.5,21.5c2.3,0,3.5-0.5,4.4-1.3c0.8-0.8,1.4-2,1.4-3.3
			s-0.5-2.5-1.4-3.3c-0.8-0.8-2-1.4-4.4-1.4h-7.3v9.4L629.5,21.5L629.5,21.5z"/>
		<path class="st0" d="M683.2,21.5v5h-12v12.3h16.2v5H666V7.2h20.9v5h-15.6v9.4L683.2,21.5L683.2,21.5z"/>
	</g>
</g>
</svg>
