<svg xmlns="http://www.w3.org/2000/svg" viewBox="0 0 1007.29 268.5"><defs><style>.cls-1{fill:#fff;}</style></defs><title>CCS_Oliva_logo_digital</title><g id="Oliva_logo_with_free_space" data-name="Oliva logo with free space"><path class="cls-1" d="M387.13,82.7C461,82.7,516.9,140.88,516.9,217S461,351.2,387.13,351.2,257.35,293,257.35,217,313.29,82.7,387.13,82.7Zm0,247.24c63,0,107.4-51.08,107.4-113s-44.38-113-107.4-113S279.72,155,279.72,217,324.11,329.94,387.13,329.94Z" transform="translate(-257.35 -82.7)"/><path class="cls-1" d="M600.82,326.22H723.89v21.25H578.45v-261h22.38Z" transform="translate(-257.35 -82.7)"/><path class="cls-1" d="M757.46,86.43h22.38v261H757.46Z" transform="translate(-257.35 -82.7)"/><path class="cls-1" d="M1044.61,86.43l-106.28,261H923.41l-106.28-261h23.12l90.62,223.75,90.62-223.75Z" transform="translate(-257.35 -82.7)"/><path class="cls-1" d="M1152,86.43l112.63,261h-22.38L1208,268.79h-126.8l-34.31,78.68h-22.38l112.63-261Zm-61.91,161.1h108.52l-54.07-126Z" transform="translate(-257.35 -82.7)"/></g></svg>